<mxfile host="Electron" modified="2024-01-12T09:15:19.068Z" agent="Mozilla/5.0 (Windows NT 10.0; Win64; x64) AppleWebKit/537.36 (KHTML, like Gecko) draw.io/22.1.18 Chrome/120.0.6099.199 Electron/28.1.2 Safari/537.36" etag="Cn5p-QxawHQqijZ0wafx" version="22.1.18" type="device">
  <diagram name="Page-1" id="edFX1pW7LbjZiqkLn0fU">
    <mxGraphModel dx="1434" dy="836" grid="1" gridSize="10" guides="1" tooltips="1" connect="1" arrows="1" fold="1" page="1" pageScale="1" pageWidth="827" pageHeight="1169" math="0" shadow="0">
      <root>
        <mxCell id="0" />
        <mxCell id="1" parent="0" />
        <mxCell id="92B4J3Ks_CFVXiR_SjBd-83" value="User" style="swimlane;fontStyle=1;align=center;verticalAlign=top;childLayout=stackLayout;horizontal=1;startSize=26;horizontalStack=0;resizeParent=1;resizeParentMax=0;resizeLast=0;collapsible=1;marginBottom=0;whiteSpace=wrap;html=1;" parent="1" vertex="1">
          <mxGeometry x="100" y="40" width="160" height="274" as="geometry" />
        </mxCell>
        <mxCell id="92B4J3Ks_CFVXiR_SjBd-84" value="- id : int" style="text;strokeColor=none;fillColor=none;align=left;verticalAlign=top;spacingLeft=4;spacingRight=4;overflow=hidden;rotatable=0;points=[[0,0.5],[1,0.5]];portConstraint=eastwest;whiteSpace=wrap;html=1;" parent="92B4J3Ks_CFVXiR_SjBd-83" vertex="1">
          <mxGeometry y="26" width="160" height="26" as="geometry" />
        </mxCell>
        <mxCell id="92B4J3Ks_CFVXiR_SjBd-85" value="- mail : string" style="text;strokeColor=none;fillColor=none;align=left;verticalAlign=top;spacingLeft=4;spacingRight=4;overflow=hidden;rotatable=0;points=[[0,0.5],[1,0.5]];portConstraint=eastwest;whiteSpace=wrap;html=1;" parent="92B4J3Ks_CFVXiR_SjBd-83" vertex="1">
          <mxGeometry y="52" width="160" height="32" as="geometry" />
        </mxCell>
        <mxCell id="92B4J3Ks_CFVXiR_SjBd-86" value="- password : string" style="text;strokeColor=none;fillColor=none;align=left;verticalAlign=top;spacingLeft=4;spacingRight=4;overflow=hidden;rotatable=0;points=[[0,0.5],[1,0.5]];portConstraint=eastwest;whiteSpace=wrap;html=1;" parent="92B4J3Ks_CFVXiR_SjBd-83" vertex="1">
          <mxGeometry y="84" width="160" height="26" as="geometry" />
        </mxCell>
        <mxCell id="92B4J3Ks_CFVXiR_SjBd-87" value="- role : string" style="text;strokeColor=none;fillColor=none;align=left;verticalAlign=top;spacingLeft=4;spacingRight=4;overflow=hidden;rotatable=0;points=[[0,0.5],[1,0.5]];portConstraint=eastwest;whiteSpace=wrap;html=1;" parent="92B4J3Ks_CFVXiR_SjBd-83" vertex="1">
          <mxGeometry y="110" width="160" height="26" as="geometry" />
        </mxCell>
        <mxCell id="92B4J3Ks_CFVXiR_SjBd-88" value="" style="line;strokeWidth=1;fillColor=none;align=left;verticalAlign=middle;spacingTop=-1;spacingLeft=3;spacingRight=3;rotatable=0;labelPosition=right;points=[];portConstraint=eastwest;strokeColor=inherit;" parent="92B4J3Ks_CFVXiR_SjBd-83" vertex="1">
          <mxGeometry y="136" width="160" height="8" as="geometry" />
        </mxCell>
        <mxCell id="92B4J3Ks_CFVXiR_SjBd-89" value="+ logIn() : void" style="text;strokeColor=none;fillColor=none;align=left;verticalAlign=top;spacingLeft=4;spacingRight=4;overflow=hidden;rotatable=0;points=[[0,0.5],[1,0.5]];portConstraint=eastwest;whiteSpace=wrap;html=1;" parent="92B4J3Ks_CFVXiR_SjBd-83" vertex="1">
          <mxGeometry y="144" width="160" height="26" as="geometry" />
        </mxCell>
        <mxCell id="92B4J3Ks_CFVXiR_SjBd-90" value="+ logOut() : void" style="text;strokeColor=none;fillColor=none;align=left;verticalAlign=top;spacingLeft=4;spacingRight=4;overflow=hidden;rotatable=0;points=[[0,0.5],[1,0.5]];portConstraint=eastwest;whiteSpace=wrap;html=1;" parent="92B4J3Ks_CFVXiR_SjBd-83" vertex="1">
          <mxGeometry y="170" width="160" height="26" as="geometry" />
        </mxCell>
        <mxCell id="92B4J3Ks_CFVXiR_SjBd-91" value="+ createUser() : void" style="text;strokeColor=none;fillColor=none;align=left;verticalAlign=top;spacingLeft=4;spacingRight=4;overflow=hidden;rotatable=0;points=[[0,0.5],[1,0.5]];portConstraint=eastwest;whiteSpace=wrap;html=1;" parent="92B4J3Ks_CFVXiR_SjBd-83" vertex="1">
          <mxGeometry y="196" width="160" height="26" as="geometry" />
        </mxCell>
        <mxCell id="92B4J3Ks_CFVXiR_SjBd-92" value="+ modifyUser() : void" style="text;strokeColor=none;fillColor=none;align=left;verticalAlign=top;spacingLeft=4;spacingRight=4;overflow=hidden;rotatable=0;points=[[0,0.5],[1,0.5]];portConstraint=eastwest;whiteSpace=wrap;html=1;" parent="92B4J3Ks_CFVXiR_SjBd-83" vertex="1">
          <mxGeometry y="222" width="160" height="26" as="geometry" />
        </mxCell>
        <mxCell id="92B4J3Ks_CFVXiR_SjBd-93" value="+ deleteUser() : void" style="text;strokeColor=none;fillColor=none;align=left;verticalAlign=top;spacingLeft=4;spacingRight=4;overflow=hidden;rotatable=0;points=[[0,0.5],[1,0.5]];portConstraint=eastwest;whiteSpace=wrap;html=1;" parent="92B4J3Ks_CFVXiR_SjBd-83" vertex="1">
          <mxGeometry y="248" width="160" height="26" as="geometry" />
        </mxCell>
        <mxCell id="92B4J3Ks_CFVXiR_SjBd-94" value="Company" style="swimlane;fontStyle=1;align=center;verticalAlign=top;childLayout=stackLayout;horizontal=1;startSize=26;horizontalStack=0;resizeParent=1;resizeParentMax=0;resizeLast=0;collapsible=1;marginBottom=0;whiteSpace=wrap;html=1;" parent="1" vertex="1">
          <mxGeometry x="90" y="810" width="180" height="134" as="geometry" />
        </mxCell>
        <mxCell id="92B4J3Ks_CFVXiR_SjBd-95" value="- id : int" style="text;strokeColor=none;fillColor=none;align=left;verticalAlign=top;spacingLeft=4;spacingRight=4;overflow=hidden;rotatable=0;points=[[0,0.5],[1,0.5]];portConstraint=eastwest;whiteSpace=wrap;html=1;" parent="92B4J3Ks_CFVXiR_SjBd-94" vertex="1">
          <mxGeometry y="26" width="180" height="22" as="geometry" />
        </mxCell>
        <mxCell id="92B4J3Ks_CFVXiR_SjBd-96" value="- name : string" style="text;strokeColor=none;fillColor=none;align=left;verticalAlign=top;spacingLeft=4;spacingRight=4;overflow=hidden;rotatable=0;points=[[0,0.5],[1,0.5]];portConstraint=eastwest;whiteSpace=wrap;html=1;" parent="92B4J3Ks_CFVXiR_SjBd-94" vertex="1">
          <mxGeometry y="48" width="180" height="26" as="geometry" />
        </mxCell>
        <mxCell id="92B4J3Ks_CFVXiR_SjBd-97" value="" style="line;strokeWidth=1;fillColor=none;align=left;verticalAlign=middle;spacingTop=-1;spacingLeft=3;spacingRight=3;rotatable=0;labelPosition=right;points=[];portConstraint=eastwest;strokeColor=inherit;" parent="92B4J3Ks_CFVXiR_SjBd-94" vertex="1">
          <mxGeometry y="74" width="180" height="8" as="geometry" />
        </mxCell>
        <mxCell id="92B4J3Ks_CFVXiR_SjBd-98" value="+ createFlight() : Flight, Airport" style="text;strokeColor=none;fillColor=none;align=left;verticalAlign=top;spacingLeft=4;spacingRight=4;overflow=hidden;rotatable=0;points=[[0,0.5],[1,0.5]];portConstraint=eastwest;whiteSpace=wrap;html=1;" parent="92B4J3Ks_CFVXiR_SjBd-94" vertex="1">
          <mxGeometry y="82" width="180" height="26" as="geometry" />
        </mxCell>
        <mxCell id="92B4J3Ks_CFVXiR_SjBd-99" value="+ deleteFlight(): void" style="text;strokeColor=none;fillColor=none;align=left;verticalAlign=top;spacingLeft=4;spacingRight=4;overflow=hidden;rotatable=0;points=[[0,0.5],[1,0.5]];portConstraint=eastwest;whiteSpace=wrap;html=1;" parent="92B4J3Ks_CFVXiR_SjBd-94" vertex="1">
          <mxGeometry y="108" width="180" height="26" as="geometry" />
        </mxCell>
        <mxCell id="92B4J3Ks_CFVXiR_SjBd-100" value="Customer" style="swimlane;fontStyle=1;align=center;verticalAlign=top;childLayout=stackLayout;horizontal=1;startSize=26;horizontalStack=0;resizeParent=1;resizeParentMax=0;resizeLast=0;collapsible=1;marginBottom=0;whiteSpace=wrap;html=1;" parent="1" vertex="1">
          <mxGeometry x="70" y="380" width="240" height="160" as="geometry" />
        </mxCell>
        <mxCell id="92B4J3Ks_CFVXiR_SjBd-101" value="- id : int" style="text;strokeColor=none;fillColor=none;align=left;verticalAlign=top;spacingLeft=4;spacingRight=4;overflow=hidden;rotatable=0;points=[[0,0.5],[1,0.5]];portConstraint=eastwest;whiteSpace=wrap;html=1;" parent="92B4J3Ks_CFVXiR_SjBd-100" vertex="1">
          <mxGeometry y="26" width="240" height="22" as="geometry" />
        </mxCell>
        <mxCell id="92B4J3Ks_CFVXiR_SjBd-102" value="+ item: attribute" style="text;strokeColor=none;fillColor=none;align=left;verticalAlign=top;spacingLeft=4;spacingRight=4;overflow=hidden;rotatable=0;points=[[0,0.5],[1,0.5]];portConstraint=eastwest;whiteSpace=wrap;html=1;" parent="92B4J3Ks_CFVXiR_SjBd-100" vertex="1">
          <mxGeometry y="48" width="240" height="26" as="geometry" />
        </mxCell>
        <mxCell id="92B4J3Ks_CFVXiR_SjBd-103" value="" style="line;strokeWidth=1;fillColor=none;align=left;verticalAlign=middle;spacingTop=-1;spacingLeft=3;spacingRight=3;rotatable=0;labelPosition=right;points=[];portConstraint=eastwest;strokeColor=inherit;" parent="92B4J3Ks_CFVXiR_SjBd-100" vertex="1">
          <mxGeometry y="74" width="240" height="8" as="geometry" />
        </mxCell>
        <mxCell id="92B4J3Ks_CFVXiR_SjBd-104" value="+ buyReservation() : void" style="text;strokeColor=none;fillColor=none;align=left;verticalAlign=top;spacingLeft=4;spacingRight=4;overflow=hidden;rotatable=0;points=[[0,0.5],[1,0.5]];portConstraint=eastwest;whiteSpace=wrap;html=1;" parent="92B4J3Ks_CFVXiR_SjBd-100" vertex="1">
          <mxGeometry y="82" width="240" height="26" as="geometry" />
        </mxCell>
        <mxCell id="92B4J3Ks_CFVXiR_SjBd-105" value="+ cancelReservation() : Reservation" style="text;strokeColor=none;fillColor=none;align=left;verticalAlign=top;spacingLeft=4;spacingRight=4;overflow=hidden;rotatable=0;points=[[0,0.5],[1,0.5]];portConstraint=eastwest;whiteSpace=wrap;html=1;" parent="92B4J3Ks_CFVXiR_SjBd-100" vertex="1">
          <mxGeometry y="108" width="240" height="26" as="geometry" />
        </mxCell>
        <mxCell id="92B4J3Ks_CFVXiR_SjBd-106" value="+ seeReservationHistory() : Reservation" style="text;strokeColor=none;fillColor=none;align=left;verticalAlign=top;spacingLeft=4;spacingRight=4;overflow=hidden;rotatable=0;points=[[0,0.5],[1,0.5]];portConstraint=eastwest;whiteSpace=wrap;html=1;" parent="92B4J3Ks_CFVXiR_SjBd-100" vertex="1">
          <mxGeometry y="134" width="240" height="26" as="geometry" />
        </mxCell>
        <mxCell id="92B4J3Ks_CFVXiR_SjBd-107" value="Airport" style="swimlane;fontStyle=1;align=center;verticalAlign=top;childLayout=stackLayout;horizontal=1;startSize=26;horizontalStack=0;resizeParent=1;resizeParentMax=0;resizeLast=0;collapsible=1;marginBottom=0;whiteSpace=wrap;html=1;" parent="1" vertex="1">
          <mxGeometry x="360" y="330" width="160" height="112" as="geometry" />
        </mxCell>
        <mxCell id="92B4J3Ks_CFVXiR_SjBd-108" value="- id : int" style="text;strokeColor=none;fillColor=none;align=left;verticalAlign=top;spacingLeft=4;spacingRight=4;overflow=hidden;rotatable=0;points=[[0,0.5],[1,0.5]];portConstraint=eastwest;whiteSpace=wrap;html=1;" parent="92B4J3Ks_CFVXiR_SjBd-107" vertex="1">
          <mxGeometry y="26" width="160" height="26" as="geometry" />
        </mxCell>
        <mxCell id="92B4J3Ks_CFVXiR_SjBd-109" value="- name : string" style="text;strokeColor=none;fillColor=none;align=left;verticalAlign=top;spacingLeft=4;spacingRight=4;overflow=hidden;rotatable=0;points=[[0,0.5],[1,0.5]];portConstraint=eastwest;whiteSpace=wrap;html=1;" parent="92B4J3Ks_CFVXiR_SjBd-107" vertex="1">
          <mxGeometry y="52" width="160" height="26" as="geometry" />
        </mxCell>
        <mxCell id="92B4J3Ks_CFVXiR_SjBd-110" value="" style="line;strokeWidth=1;fillColor=none;align=left;verticalAlign=middle;spacingTop=-1;spacingLeft=3;spacingRight=3;rotatable=0;labelPosition=right;points=[];portConstraint=eastwest;strokeColor=inherit;" parent="92B4J3Ks_CFVXiR_SjBd-107" vertex="1">
          <mxGeometry y="78" width="160" height="8" as="geometry" />
        </mxCell>
        <mxCell id="92B4J3Ks_CFVXiR_SjBd-111" value="+ ShowAirportInfo() :Airport" style="text;strokeColor=none;fillColor=none;align=left;verticalAlign=top;spacingLeft=4;spacingRight=4;overflow=hidden;rotatable=0;points=[[0,0.5],[1,0.5]];portConstraint=eastwest;whiteSpace=wrap;html=1;" parent="92B4J3Ks_CFVXiR_SjBd-107" vertex="1">
          <mxGeometry y="86" width="160" height="26" as="geometry" />
        </mxCell>
        <mxCell id="92B4J3Ks_CFVXiR_SjBd-112" value="Reservation" style="swimlane;fontStyle=1;align=center;verticalAlign=top;childLayout=stackLayout;horizontal=1;startSize=26;horizontalStack=0;resizeParent=1;resizeParentMax=0;resizeLast=0;collapsible=1;marginBottom=0;whiteSpace=wrap;html=1;" parent="1" vertex="1">
          <mxGeometry x="330" y="40" width="250" height="78" as="geometry" />
        </mxCell>
        <mxCell id="92B4J3Ks_CFVXiR_SjBd-113" value="- id : int" style="text;strokeColor=none;fillColor=none;align=left;verticalAlign=top;spacingLeft=4;spacingRight=4;overflow=hidden;rotatable=0;points=[[0,0.5],[1,0.5]];portConstraint=eastwest;whiteSpace=wrap;html=1;" parent="92B4J3Ks_CFVXiR_SjBd-112" vertex="1">
          <mxGeometry y="26" width="250" height="26" as="geometry" />
        </mxCell>
        <mxCell id="92B4J3Ks_CFVXiR_SjBd-114" value="- confirmed : boolean" style="text;strokeColor=none;fillColor=none;align=left;verticalAlign=top;spacingLeft=4;spacingRight=4;overflow=hidden;rotatable=0;points=[[0,0.5],[1,0.5]];portConstraint=eastwest;whiteSpace=wrap;html=1;" parent="92B4J3Ks_CFVXiR_SjBd-112" vertex="1">
          <mxGeometry y="52" width="250" height="26" as="geometry" />
        </mxCell>
        <mxCell id="92B4J3Ks_CFVXiR_SjBd-118" value="Agency" style="swimlane;fontStyle=1;align=center;verticalAlign=top;childLayout=stackLayout;horizontal=1;startSize=26;horizontalStack=0;resizeParent=1;resizeParentMax=0;resizeLast=0;collapsible=1;marginBottom=0;whiteSpace=wrap;html=1;" parent="1" vertex="1">
          <mxGeometry x="200" y="550" width="170" height="190" as="geometry" />
        </mxCell>
        <mxCell id="92B4J3Ks_CFVXiR_SjBd-119" value="- id : int" style="text;strokeColor=none;fillColor=none;align=left;verticalAlign=top;spacingLeft=4;spacingRight=4;overflow=hidden;rotatable=0;points=[[0,0.5],[1,0.5]];portConstraint=eastwest;whiteSpace=wrap;html=1;" parent="92B4J3Ks_CFVXiR_SjBd-118" vertex="1">
          <mxGeometry y="26" width="170" height="26" as="geometry" />
        </mxCell>
        <mxCell id="92B4J3Ks_CFVXiR_SjBd-120" value="- agency" style="text;strokeColor=none;fillColor=none;align=left;verticalAlign=top;spacingLeft=4;spacingRight=4;overflow=hidden;rotatable=0;points=[[0,0.5],[1,0.5]];portConstraint=eastwest;whiteSpace=wrap;html=1;" parent="92B4J3Ks_CFVXiR_SjBd-118" vertex="1">
          <mxGeometry y="52" width="170" height="26" as="geometry" />
        </mxCell>
        <mxCell id="92B4J3Ks_CFVXiR_SjBd-121" value="" style="line;strokeWidth=1;fillColor=none;align=left;verticalAlign=middle;spacingTop=-1;spacingLeft=3;spacingRight=3;rotatable=0;labelPosition=right;points=[];portConstraint=eastwest;strokeColor=inherit;" parent="92B4J3Ks_CFVXiR_SjBd-118" vertex="1">
          <mxGeometry y="78" width="170" height="8" as="geometry" />
        </mxCell>
        <mxCell id="92B4J3Ks_CFVXiR_SjBd-122" value="+ addFlight() : createFlight()" style="text;strokeColor=none;fillColor=none;align=left;verticalAlign=top;spacingLeft=4;spacingRight=4;overflow=hidden;rotatable=0;points=[[0,0.5],[1,0.5]];portConstraint=eastwest;whiteSpace=wrap;html=1;" parent="92B4J3Ks_CFVXiR_SjBd-118" vertex="1">
          <mxGeometry y="86" width="170" height="26" as="geometry" />
        </mxCell>
        <mxCell id="92B4J3Ks_CFVXiR_SjBd-123" value="+ addCompany() : Company" style="text;strokeColor=none;fillColor=none;align=left;verticalAlign=top;spacingLeft=4;spacingRight=4;overflow=hidden;rotatable=0;points=[[0,0.5],[1,0.5]];portConstraint=eastwest;whiteSpace=wrap;html=1;" parent="92B4J3Ks_CFVXiR_SjBd-118" vertex="1">
          <mxGeometry y="112" width="170" height="26" as="geometry" />
        </mxCell>
        <mxCell id="92B4J3Ks_CFVXiR_SjBd-124" value="+ closeFlight() : void" style="text;strokeColor=none;fillColor=none;align=left;verticalAlign=top;spacingLeft=4;spacingRight=4;overflow=hidden;rotatable=0;points=[[0,0.5],[1,0.5]];portConstraint=eastwest;whiteSpace=wrap;html=1;" parent="92B4J3Ks_CFVXiR_SjBd-118" vertex="1">
          <mxGeometry y="138" width="170" height="26" as="geometry" />
        </mxCell>
        <mxCell id="92B4J3Ks_CFVXiR_SjBd-125" value="+ closeCompagny() : void" style="text;strokeColor=none;fillColor=none;align=left;verticalAlign=top;spacingLeft=4;spacingRight=4;overflow=hidden;rotatable=0;points=[[0,0.5],[1,0.5]];portConstraint=eastwest;whiteSpace=wrap;html=1;" parent="92B4J3Ks_CFVXiR_SjBd-118" vertex="1">
          <mxGeometry y="164" width="170" height="26" as="geometry" />
        </mxCell>
        <mxCell id="92B4J3Ks_CFVXiR_SjBd-138" value="Stopover" style="swimlane;fontStyle=1;align=center;verticalAlign=top;childLayout=stackLayout;horizontal=1;startSize=26;horizontalStack=0;resizeParent=1;resizeParentMax=0;resizeLast=0;collapsible=1;marginBottom=0;whiteSpace=wrap;html=1;" parent="1" vertex="1">
          <mxGeometry x="650" y="715" width="160" height="104" as="geometry" />
        </mxCell>
        <mxCell id="92B4J3Ks_CFVXiR_SjBd-139" value="- id : int" style="text;strokeColor=none;fillColor=none;align=left;verticalAlign=top;spacingLeft=4;spacingRight=4;overflow=hidden;rotatable=0;points=[[0,0.5],[1,0.5]];portConstraint=eastwest;whiteSpace=wrap;html=1;" parent="92B4J3Ks_CFVXiR_SjBd-138" vertex="1">
          <mxGeometry y="26" width="160" height="26" as="geometry" />
        </mxCell>
        <mxCell id="92B4J3Ks_CFVXiR_SjBd-140" value="- departure : datetime" style="text;strokeColor=none;fillColor=none;align=left;verticalAlign=top;spacingLeft=4;spacingRight=4;overflow=hidden;rotatable=0;points=[[0,0.5],[1,0.5]];portConstraint=eastwest;whiteSpace=wrap;html=1;" parent="92B4J3Ks_CFVXiR_SjBd-138" vertex="1">
          <mxGeometry y="52" width="160" height="26" as="geometry" />
        </mxCell>
        <mxCell id="92B4J3Ks_CFVXiR_SjBd-141" value="- arrival : datetime" style="text;strokeColor=none;fillColor=none;align=left;verticalAlign=top;spacingLeft=4;spacingRight=4;overflow=hidden;rotatable=0;points=[[0,0.5],[1,0.5]];portConstraint=eastwest;whiteSpace=wrap;html=1;" parent="92B4J3Ks_CFVXiR_SjBd-138" vertex="1">
          <mxGeometry y="78" width="160" height="26" as="geometry" />
        </mxCell>
        <mxCell id="92B4J3Ks_CFVXiR_SjBd-144" value="" style="endArrow=classic;html=1;rounded=0;exitX=0.5;exitY=0;exitDx=0;exitDy=0;entryX=0.552;entryY=1.123;entryDx=0;entryDy=0;entryPerimeter=0;" parent="1" source="92B4J3Ks_CFVXiR_SjBd-100" target="92B4J3Ks_CFVXiR_SjBd-93" edge="1">
          <mxGeometry width="50" height="50" relative="1" as="geometry">
            <mxPoint x="340" y="310" as="sourcePoint" />
            <mxPoint x="220" y="320" as="targetPoint" />
            <Array as="points" />
          </mxGeometry>
        </mxCell>
        <mxCell id="92B4J3Ks_CFVXiR_SjBd-149" value="Flight" style="swimlane;fontStyle=1;align=center;verticalAlign=top;childLayout=stackLayout;horizontal=1;startSize=26;horizontalStack=0;resizeParent=1;resizeParentMax=0;resizeLast=0;collapsible=1;marginBottom=0;whiteSpace=wrap;html=1;" parent="1" vertex="1">
          <mxGeometry x="450" y="566" width="160" height="242" as="geometry" />
        </mxCell>
        <mxCell id="92B4J3Ks_CFVXiR_SjBd-150" value="- id : int" style="text;strokeColor=none;fillColor=none;align=left;verticalAlign=top;spacingLeft=4;spacingRight=4;overflow=hidden;rotatable=0;points=[[0,0.5],[1,0.5]];portConstraint=eastwest;whiteSpace=wrap;html=1;" parent="92B4J3Ks_CFVXiR_SjBd-149" vertex="1">
          <mxGeometry y="26" width="160" height="26" as="geometry" />
        </mxCell>
        <mxCell id="92B4J3Ks_CFVXiR_SjBd-151" value="- number : int" style="text;strokeColor=none;fillColor=none;align=left;verticalAlign=top;spacingLeft=4;spacingRight=4;overflow=hidden;rotatable=0;points=[[0,0.5],[1,0.5]];portConstraint=eastwest;whiteSpace=wrap;html=1;" parent="92B4J3Ks_CFVXiR_SjBd-149" vertex="1">
          <mxGeometry y="52" width="160" height="26" as="geometry" />
        </mxCell>
        <mxCell id="92B4J3Ks_CFVXiR_SjBd-152" value="- departure : datetime" style="text;strokeColor=none;fillColor=none;align=left;verticalAlign=top;spacingLeft=4;spacingRight=4;overflow=hidden;rotatable=0;points=[[0,0.5],[1,0.5]];portConstraint=eastwest;whiteSpace=wrap;html=1;" parent="92B4J3Ks_CFVXiR_SjBd-149" vertex="1">
          <mxGeometry y="78" width="160" height="26" as="geometry" />
        </mxCell>
        <mxCell id="92B4J3Ks_CFVXiR_SjBd-153" value="- arrival : datetime" style="text;strokeColor=none;fillColor=none;align=left;verticalAlign=top;spacingLeft=4;spacingRight=4;overflow=hidden;rotatable=0;points=[[0,0.5],[1,0.5]];portConstraint=eastwest;whiteSpace=wrap;html=1;" parent="92B4J3Ks_CFVXiR_SjBd-149" vertex="1">
          <mxGeometry y="104" width="160" height="26" as="geometry" />
        </mxCell>
        <mxCell id="92B4J3Ks_CFVXiR_SjBd-154" value="- stopover : boolean" style="text;strokeColor=none;fillColor=none;align=left;verticalAlign=top;spacingLeft=4;spacingRight=4;overflow=hidden;rotatable=0;points=[[0,0.5],[1,0.5]];portConstraint=eastwest;whiteSpace=wrap;html=1;" parent="92B4J3Ks_CFVXiR_SjBd-149" vertex="1">
          <mxGeometry y="130" width="160" height="26" as="geometry" />
        </mxCell>
        <mxCell id="92B4J3Ks_CFVXiR_SjBd-155" value="- delay : boolean" style="text;strokeColor=none;fillColor=none;align=left;verticalAlign=top;spacingLeft=4;spacingRight=4;overflow=hidden;rotatable=0;points=[[0,0.5],[1,0.5]];portConstraint=eastwest;whiteSpace=wrap;html=1;" parent="92B4J3Ks_CFVXiR_SjBd-149" vertex="1">
          <mxGeometry y="156" width="160" height="26" as="geometry" />
        </mxCell>
        <mxCell id="92B4J3Ks_CFVXiR_SjBd-156" value="" style="line;strokeWidth=1;fillColor=none;align=left;verticalAlign=middle;spacingTop=-1;spacingLeft=3;spacingRight=3;rotatable=0;labelPosition=right;points=[];portConstraint=eastwest;strokeColor=inherit;" parent="92B4J3Ks_CFVXiR_SjBd-149" vertex="1">
          <mxGeometry y="182" width="160" height="8" as="geometry" />
        </mxCell>
        <mxCell id="92B4J3Ks_CFVXiR_SjBd-157" value="+ isStopover() : Stopover" style="text;strokeColor=none;fillColor=none;align=left;verticalAlign=top;spacingLeft=4;spacingRight=4;overflow=hidden;rotatable=0;points=[[0,0.5],[1,0.5]];portConstraint=eastwest;whiteSpace=wrap;html=1;" parent="92B4J3Ks_CFVXiR_SjBd-149" vertex="1">
          <mxGeometry y="190" width="160" height="26" as="geometry" />
        </mxCell>
        <mxCell id="92B4J3Ks_CFVXiR_SjBd-158" value="+ showFlightInfos() : void" style="text;strokeColor=none;fillColor=none;align=left;verticalAlign=top;spacingLeft=4;spacingRight=4;overflow=hidden;rotatable=0;points=[[0,0.5],[1,0.5]];portConstraint=eastwest;whiteSpace=wrap;html=1;" parent="92B4J3Ks_CFVXiR_SjBd-149" vertex="1">
          <mxGeometry y="216" width="160" height="26" as="geometry" />
        </mxCell>
        <mxCell id="92B4J3Ks_CFVXiR_SjBd-159" value="" style="endArrow=none;html=1;rounded=0;entryX=0.25;entryY=0;entryDx=0;entryDy=0;exitX=0;exitY=0.5;exitDx=0;exitDy=0;" parent="1" source="92B4J3Ks_CFVXiR_SjBd-120" target="92B4J3Ks_CFVXiR_SjBd-94" edge="1">
          <mxGeometry width="50" height="50" relative="1" as="geometry">
            <mxPoint x="414" y="441" as="sourcePoint" />
            <mxPoint x="380" y="340" as="targetPoint" />
            <Array as="points">
              <mxPoint x="133" y="615" />
            </Array>
          </mxGeometry>
        </mxCell>
        <mxCell id="92B4J3Ks_CFVXiR_SjBd-162" value="" style="endArrow=classic;html=1;rounded=0;entryX=0;entryY=0.5;entryDx=0;entryDy=0;exitX=0;exitY=0.5;exitDx=0;exitDy=0;" parent="1" source="92B4J3Ks_CFVXiR_SjBd-119" target="92B4J3Ks_CFVXiR_SjBd-87" edge="1">
          <mxGeometry width="50" height="50" relative="1" as="geometry">
            <mxPoint x="330" y="390" as="sourcePoint" />
            <mxPoint x="380" y="340" as="targetPoint" />
            <Array as="points">
              <mxPoint x="60" y="590" />
              <mxPoint x="60" y="163" />
            </Array>
          </mxGeometry>
        </mxCell>
        <mxCell id="92B4J3Ks_CFVXiR_SjBd-163" value="" style="endArrow=classic;html=1;rounded=0;entryX=0;entryY=0.5;entryDx=0;entryDy=0;exitX=0;exitY=0.5;exitDx=0;exitDy=0;" parent="1" source="92B4J3Ks_CFVXiR_SjBd-96" target="92B4J3Ks_CFVXiR_SjBd-85" edge="1">
          <mxGeometry width="50" height="50" relative="1" as="geometry">
            <mxPoint x="330" y="390" as="sourcePoint" />
            <mxPoint x="380" y="340" as="targetPoint" />
            <Array as="points">
              <mxPoint x="40" y="870" />
              <mxPoint x="40" y="108" />
            </Array>
          </mxGeometry>
        </mxCell>
        <mxCell id="92B4J3Ks_CFVXiR_SjBd-164" value="" style="endArrow=diamondThin;endFill=1;endSize=24;html=1;rounded=0;entryX=1;entryY=0.5;entryDx=0;entryDy=0;exitX=0;exitY=0.308;exitDx=0;exitDy=0;exitPerimeter=0;" parent="1" source="92B4J3Ks_CFVXiR_SjBd-134" edge="1">
          <mxGeometry width="160" relative="1" as="geometry">
            <mxPoint x="660" y="86" as="sourcePoint" />
            <mxPoint x="580" y="80" as="targetPoint" />
            <Array as="points">
              <mxPoint x="630" y="81" />
            </Array>
          </mxGeometry>
        </mxCell>
        <mxCell id="92B4J3Ks_CFVXiR_SjBd-167" value="0,N" style="text;html=1;align=center;verticalAlign=middle;resizable=0;points=[];autosize=1;strokeColor=none;fillColor=none;" parent="1" vertex="1">
          <mxGeometry x="60" y="78" width="40" height="30" as="geometry" />
        </mxCell>
        <mxCell id="92B4J3Ks_CFVXiR_SjBd-168" value="1,1" style="text;html=1;align=center;verticalAlign=middle;resizable=0;points=[];autosize=1;strokeColor=none;fillColor=none;" parent="1" vertex="1">
          <mxGeometry x="50" y="868" width="40" height="30" as="geometry" />
        </mxCell>
        <mxCell id="92B4J3Ks_CFVXiR_SjBd-170" value="1,1" style="text;html=1;align=center;verticalAlign=middle;resizable=0;points=[];autosize=1;strokeColor=none;fillColor=none;" parent="1" vertex="1">
          <mxGeometry x="160" y="558" width="40" height="30" as="geometry" />
        </mxCell>
        <mxCell id="92B4J3Ks_CFVXiR_SjBd-171" value="0,N" style="text;html=1;align=center;verticalAlign=middle;resizable=0;points=[];autosize=1;strokeColor=none;fillColor=none;" parent="1" vertex="1">
          <mxGeometry x="60" y="128" width="40" height="30" as="geometry" />
        </mxCell>
        <mxCell id="92B4J3Ks_CFVXiR_SjBd-172" value="0,N" style="text;html=1;align=center;verticalAlign=middle;resizable=0;points=[];autosize=1;strokeColor=none;fillColor=none;" parent="1" vertex="1">
          <mxGeometry x="150" y="314" width="40" height="30" as="geometry" />
        </mxCell>
        <mxCell id="92B4J3Ks_CFVXiR_SjBd-173" value="1,1" style="text;html=1;align=center;verticalAlign=middle;resizable=0;points=[];autosize=1;strokeColor=none;fillColor=none;" parent="1" vertex="1">
          <mxGeometry x="190" y="358" width="40" height="30" as="geometry" />
        </mxCell>
        <mxCell id="92B4J3Ks_CFVXiR_SjBd-174" value="1,1" style="text;html=1;align=center;verticalAlign=middle;resizable=0;points=[];autosize=1;strokeColor=none;fillColor=none;" parent="1" vertex="1">
          <mxGeometry x="290" y="78" width="40" height="30" as="geometry" />
        </mxCell>
        <mxCell id="92B4J3Ks_CFVXiR_SjBd-175" value="1,1" style="text;html=1;align=center;verticalAlign=middle;resizable=0;points=[];autosize=1;strokeColor=none;fillColor=none;" parent="1" vertex="1">
          <mxGeometry x="580" y="40" width="40" height="30" as="geometry" />
        </mxCell>
        <mxCell id="92B4J3Ks_CFVXiR_SjBd-176" value="1,1" style="text;html=1;align=center;verticalAlign=middle;resizable=0;points=[];autosize=1;strokeColor=none;fillColor=none;" parent="1" vertex="1">
          <mxGeometry x="520" y="200" width="40" height="30" as="geometry" />
        </mxCell>
        <mxCell id="92B4J3Ks_CFVXiR_SjBd-178" value="0,N" style="text;html=1;align=center;verticalAlign=middle;resizable=0;points=[];autosize=1;strokeColor=none;fillColor=none;" parent="1" vertex="1">
          <mxGeometry x="580" y="528" width="40" height="30" as="geometry" />
        </mxCell>
        <mxCell id="92B4J3Ks_CFVXiR_SjBd-179" value="1,N" style="text;html=1;align=center;verticalAlign=middle;resizable=0;points=[];autosize=1;strokeColor=none;fillColor=none;" parent="1" vertex="1">
          <mxGeometry x="480" y="536" width="40" height="30" as="geometry" />
        </mxCell>
        <mxCell id="92B4J3Ks_CFVXiR_SjBd-180" value="0,N" style="text;html=1;align=center;verticalAlign=middle;resizable=0;points=[];autosize=1;strokeColor=none;fillColor=none;" parent="1" vertex="1">
          <mxGeometry x="490" y="442" width="40" height="30" as="geometry" />
        </mxCell>
        <mxCell id="92B4J3Ks_CFVXiR_SjBd-181" value="0,N" style="text;html=1;align=center;verticalAlign=middle;resizable=0;points=[];autosize=1;strokeColor=none;fillColor=none;" parent="1" vertex="1">
          <mxGeometry x="610" y="650" width="40" height="30" as="geometry" />
        </mxCell>
        <mxCell id="92B4J3Ks_CFVXiR_SjBd-182" value="1,1" style="text;html=1;align=center;verticalAlign=middle;resizable=0;points=[];autosize=1;strokeColor=none;fillColor=none;" parent="1" vertex="1">
          <mxGeometry x="680" y="680" width="40" height="30" as="geometry" />
        </mxCell>
        <mxCell id="92B4J3Ks_CFVXiR_SjBd-183" value="1,1" style="text;html=1;align=center;verticalAlign=middle;resizable=0;points=[];autosize=1;strokeColor=none;fillColor=none;" parent="1" vertex="1">
          <mxGeometry x="400" y="620" width="40" height="30" as="geometry" />
        </mxCell>
        <mxCell id="92B4J3Ks_CFVXiR_SjBd-184" value="1,N" style="text;html=1;align=center;verticalAlign=middle;resizable=0;points=[];autosize=1;strokeColor=none;fillColor=none;" parent="1" vertex="1">
          <mxGeometry x="480" y="810" width="40" height="30" as="geometry" />
        </mxCell>
        <mxCell id="92B4J3Ks_CFVXiR_SjBd-185" value="0,N" style="text;html=1;align=center;verticalAlign=middle;resizable=0;points=[];autosize=1;strokeColor=none;fillColor=none;" parent="1" vertex="1">
          <mxGeometry x="220" y="788" width="40" height="30" as="geometry" />
        </mxCell>
        <mxCell id="92B4J3Ks_CFVXiR_SjBd-186" value="1,N" style="text;html=1;align=center;verticalAlign=middle;resizable=0;points=[];autosize=1;strokeColor=none;fillColor=none;" parent="1" vertex="1">
          <mxGeometry x="130" y="778" width="40" height="30" as="geometry" />
        </mxCell>
        <mxCell id="92B4J3Ks_CFVXiR_SjBd-187" value="0,N" style="text;html=1;align=center;verticalAlign=middle;resizable=0;points=[];autosize=1;strokeColor=none;fillColor=none;" parent="1" vertex="1">
          <mxGeometry x="160" y="618" width="40" height="30" as="geometry" />
        </mxCell>
        <mxCell id="92B4J3Ks_CFVXiR_SjBd-190" value="" style="endArrow=diamondThin;endFill=1;endSize=24;html=1;rounded=0;entryX=1;entryY=0.5;entryDx=0;entryDy=0;" parent="1" target="92B4J3Ks_CFVXiR_SjBd-150" edge="1">
          <mxGeometry width="160" relative="1" as="geometry">
            <mxPoint x="730" y="710" as="sourcePoint" />
            <mxPoint x="800" y="588" as="targetPoint" />
            <Array as="points">
              <mxPoint x="730" y="605" />
            </Array>
          </mxGeometry>
        </mxCell>
        <mxCell id="92B4J3Ks_CFVXiR_SjBd-191" value="" style="endArrow=diamondThin;endFill=1;endSize=24;html=1;rounded=0;exitX=0.469;exitY=1.038;exitDx=0;exitDy=0;exitPerimeter=0;" parent="1" source="92B4J3Ks_CFVXiR_SjBd-158" target="92B4J3Ks_CFVXiR_SjBd-94" edge="1">
          <mxGeometry width="160" relative="1" as="geometry">
            <mxPoint x="240" y="760" as="sourcePoint" />
            <mxPoint x="400" y="760" as="targetPoint" />
            <Array as="points">
              <mxPoint x="525" y="880" />
              <mxPoint x="410" y="880" />
            </Array>
          </mxGeometry>
        </mxCell>
        <mxCell id="92B4J3Ks_CFVXiR_SjBd-192" value="" style="endArrow=diamondThin;endFill=0;endSize=24;html=1;rounded=0;entryX=1;entryY=0.5;entryDx=0;entryDy=0;" parent="1" source="92B4J3Ks_CFVXiR_SjBd-152" target="92B4J3Ks_CFVXiR_SjBd-122" edge="1">
          <mxGeometry width="160" relative="1" as="geometry">
            <mxPoint x="280" y="660" as="sourcePoint" />
            <mxPoint x="440" y="660" as="targetPoint" />
          </mxGeometry>
        </mxCell>
        <mxCell id="92B4J3Ks_CFVXiR_SjBd-193" value="" style="endArrow=diamondThin;endFill=0;endSize=24;html=1;rounded=0;exitX=1;exitY=0.5;exitDx=0;exitDy=0;" parent="1" source="92B4J3Ks_CFVXiR_SjBd-114" edge="1">
          <mxGeometry width="160" relative="1" as="geometry">
            <mxPoint x="520" y="200" as="sourcePoint" />
            <mxPoint x="580" y="566" as="targetPoint" />
            <Array as="points">
              <mxPoint x="610" y="105" />
              <mxPoint x="610" y="230" />
              <mxPoint x="580" y="230" />
            </Array>
          </mxGeometry>
        </mxCell>
        <mxCell id="92B4J3Ks_CFVXiR_SjBd-194" value="" style="endArrow=diamondThin;endFill=1;endSize=24;html=1;rounded=0;exitX=0.004;exitY=0.808;exitDx=0;exitDy=0;exitPerimeter=0;entryX=0.875;entryY=0;entryDx=0;entryDy=0;entryPerimeter=0;" parent="1" source="92B4J3Ks_CFVXiR_SjBd-114" target="92B4J3Ks_CFVXiR_SjBd-100" edge="1">
          <mxGeometry width="160" relative="1" as="geometry">
            <mxPoint x="330" y="108" as="sourcePoint" />
            <mxPoint x="280" y="370" as="targetPoint" />
            <Array as="points">
              <mxPoint x="300" y="113" />
              <mxPoint x="280" y="113" />
            </Array>
          </mxGeometry>
        </mxCell>
        <mxCell id="92B4J3Ks_CFVXiR_SjBd-196" value="0,N" style="text;html=1;align=center;verticalAlign=middle;resizable=0;points=[];autosize=1;strokeColor=none;fillColor=none;" parent="1" vertex="1">
          <mxGeometry x="280" y="330" width="40" height="30" as="geometry" />
        </mxCell>
        <mxCell id="92B4J3Ks_CFVXiR_SjBd-197" value="" style="endArrow=diamondThin;endFill=0;endSize=24;html=1;rounded=0;exitX=0.556;exitY=-0.012;exitDx=0;exitDy=0;exitPerimeter=0;entryX=0.619;entryY=1.231;entryDx=0;entryDy=0;entryPerimeter=0;" parent="1" source="92B4J3Ks_CFVXiR_SjBd-149" target="92B4J3Ks_CFVXiR_SjBd-111" edge="1">
          <mxGeometry width="160" relative="1" as="geometry">
            <mxPoint x="370" y="510" as="sourcePoint" />
            <mxPoint x="540" y="490" as="targetPoint" />
            <Array as="points">
              <mxPoint x="539" y="510" />
              <mxPoint x="460" y="510" />
            </Array>
          </mxGeometry>
        </mxCell>
        <mxCell id="92B4J3Ks_CFVXiR_SjBd-199" value="1,1" style="text;html=1;align=center;verticalAlign=middle;resizable=0;points=[];autosize=1;strokeColor=none;fillColor=none;" parent="1" vertex="1">
          <mxGeometry x="780" y="685" width="40" height="30" as="geometry" />
        </mxCell>
        <mxCell id="92B4J3Ks_CFVXiR_SjBd-200" value="0,N" style="text;html=1;align=center;verticalAlign=middle;resizable=0;points=[];autosize=1;strokeColor=none;fillColor=none;" parent="1" vertex="1">
          <mxGeometry x="520" y="358" width="40" height="30" as="geometry" />
        </mxCell>
        <mxCell id="92B4J3Ks_CFVXiR_SjBd-203" value="" style="endArrow=none;html=1;rounded=0;exitX=0.75;exitY=0;exitDx=0;exitDy=0;entryX=1;entryY=0.5;entryDx=0;entryDy=0;" parent="1" source="92B4J3Ks_CFVXiR_SjBd-138" target="92B4J3Ks_CFVXiR_SjBd-109" edge="1">
          <mxGeometry width="50" height="50" relative="1" as="geometry">
            <mxPoint x="730" y="528" as="sourcePoint" />
            <mxPoint x="780" y="478" as="targetPoint" />
            <Array as="points">
              <mxPoint x="770" y="395" />
            </Array>
          </mxGeometry>
        </mxCell>
        <mxCell id="rg3VmElrdccNX3w5d1Q4-5" value="Passenger" style="swimlane;fontStyle=1;align=center;verticalAlign=top;childLayout=stackLayout;horizontal=1;startSize=26;horizontalStack=0;resizeParent=1;resizeParentMax=0;resizeLast=0;collapsible=1;marginBottom=0;whiteSpace=wrap;html=1;" vertex="1" parent="1">
          <mxGeometry x="660" y="20" width="240" height="350" as="geometry" />
        </mxCell>
        <mxCell id="92B4J3Ks_CFVXiR_SjBd-135" value="- phone : int" style="text;strokeColor=none;fillColor=none;align=left;verticalAlign=top;spacingLeft=4;spacingRight=4;overflow=hidden;rotatable=0;points=[[0,0.5],[1,0.5]];portConstraint=eastwest;whiteSpace=wrap;html=1;" parent="rg3VmElrdccNX3w5d1Q4-5" vertex="1">
          <mxGeometry y="26" width="240" height="26" as="geometry" />
        </mxCell>
        <mxCell id="92B4J3Ks_CFVXiR_SjBd-134" value="- city : string" style="text;strokeColor=none;fillColor=none;align=left;verticalAlign=top;spacingLeft=4;spacingRight=4;overflow=hidden;rotatable=0;points=[[0,0.5],[1,0.5]];portConstraint=eastwest;whiteSpace=wrap;html=1;" parent="rg3VmElrdccNX3w5d1Q4-5" vertex="1">
          <mxGeometry y="52" width="240" height="26" as="geometry" />
        </mxCell>
        <mxCell id="92B4J3Ks_CFVXiR_SjBd-133" value="- state : string" style="text;strokeColor=none;fillColor=none;align=left;verticalAlign=top;spacingLeft=4;spacingRight=4;overflow=hidden;rotatable=0;points=[[0,0.5],[1,0.5]];portConstraint=eastwest;whiteSpace=wrap;html=1;" parent="rg3VmElrdccNX3w5d1Q4-5" vertex="1">
          <mxGeometry y="78" width="240" height="26" as="geometry" />
        </mxCell>
        <mxCell id="92B4J3Ks_CFVXiR_SjBd-132" value="- nationality : string" style="text;strokeColor=none;fillColor=none;align=left;verticalAlign=top;spacingLeft=4;spacingRight=4;overflow=hidden;rotatable=0;points=[[0,0.5],[1,0.5]];portConstraint=eastwest;whiteSpace=wrap;html=1;" parent="rg3VmElrdccNX3w5d1Q4-5" vertex="1">
          <mxGeometry y="104" width="240" height="26" as="geometry" />
        </mxCell>
        <mxCell id="92B4J3Ks_CFVXiR_SjBd-131" value="- adress : string" style="text;strokeColor=none;fillColor=none;align=left;verticalAlign=top;spacingLeft=4;spacingRight=4;overflow=hidden;rotatable=0;points=[[0,0.5],[1,0.5]];portConstraint=eastwest;whiteSpace=wrap;html=1;" parent="rg3VmElrdccNX3w5d1Q4-5" vertex="1">
          <mxGeometry y="130" width="240" height="26" as="geometry" />
        </mxCell>
        <mxCell id="92B4J3Ks_CFVXiR_SjBd-130" value="- birthday : date" style="text;strokeColor=none;fillColor=none;align=left;verticalAlign=top;spacingLeft=4;spacingRight=4;overflow=hidden;rotatable=0;points=[[0,0.5],[1,0.5]];portConstraint=eastwest;whiteSpace=wrap;html=1;" parent="rg3VmElrdccNX3w5d1Q4-5" vertex="1">
          <mxGeometry y="156" width="240" height="30" as="geometry" />
        </mxCell>
        <mxCell id="92B4J3Ks_CFVXiR_SjBd-129" value="- lastname : string" style="text;strokeColor=none;fillColor=none;align=left;verticalAlign=top;spacingLeft=4;spacingRight=4;overflow=hidden;rotatable=0;points=[[0,0.5],[1,0.5]];portConstraint=eastwest;whiteSpace=wrap;html=1;" parent="rg3VmElrdccNX3w5d1Q4-5" vertex="1">
          <mxGeometry y="186" width="240" height="26" as="geometry" />
        </mxCell>
        <mxCell id="92B4J3Ks_CFVXiR_SjBd-128" value="- name : string" style="text;strokeColor=none;fillColor=none;align=left;verticalAlign=top;spacingLeft=4;spacingRight=4;overflow=hidden;rotatable=0;points=[[0,0.5],[1,0.5]];portConstraint=eastwest;whiteSpace=wrap;html=1;" parent="rg3VmElrdccNX3w5d1Q4-5" vertex="1">
          <mxGeometry y="212" width="240" height="26" as="geometry" />
        </mxCell>
        <mxCell id="92B4J3Ks_CFVXiR_SjBd-127" value="- id : int" style="text;strokeColor=none;fillColor=none;align=left;verticalAlign=top;spacingLeft=4;spacingRight=4;overflow=hidden;rotatable=0;points=[[0,0.5],[1,0.5]];portConstraint=eastwest;whiteSpace=wrap;html=1;" parent="rg3VmElrdccNX3w5d1Q4-5" vertex="1">
          <mxGeometry y="238" width="240" height="26" as="geometry" />
        </mxCell>
        <mxCell id="rg3VmElrdccNX3w5d1Q4-7" value="" style="line;strokeWidth=1;fillColor=none;align=left;verticalAlign=middle;spacingTop=-1;spacingLeft=3;spacingRight=3;rotatable=0;labelPosition=right;points=[];portConstraint=eastwest;strokeColor=inherit;" vertex="1" parent="rg3VmElrdccNX3w5d1Q4-5">
          <mxGeometry y="264" width="240" height="8" as="geometry" />
        </mxCell>
        <mxCell id="92B4J3Ks_CFVXiR_SjBd-202" value="+ ShowPassengerInfo() : Passenger" style="text;strokeColor=none;fillColor=none;align=left;verticalAlign=top;spacingLeft=4;spacingRight=4;overflow=hidden;rotatable=0;points=[[0,0.5],[1,0.5]];portConstraint=eastwest;whiteSpace=wrap;html=1;" parent="rg3VmElrdccNX3w5d1Q4-5" vertex="1">
          <mxGeometry y="272" width="240" height="26" as="geometry" />
        </mxCell>
        <mxCell id="92B4J3Ks_CFVXiR_SjBd-117" value="+ recupPassager() : Passager" style="text;strokeColor=none;fillColor=none;align=left;verticalAlign=top;spacingLeft=4;spacingRight=4;overflow=hidden;rotatable=0;points=[[0,0.5],[1,0.5]];portConstraint=eastwest;whiteSpace=wrap;html=1;" parent="rg3VmElrdccNX3w5d1Q4-5" vertex="1">
          <mxGeometry y="298" width="240" height="26" as="geometry" />
        </mxCell>
        <mxCell id="92B4J3Ks_CFVXiR_SjBd-116" value="+ createPassenger() : void" style="text;strokeColor=none;fillColor=none;align=left;verticalAlign=top;spacingLeft=4;spacingRight=4;overflow=hidden;rotatable=0;points=[[0,0.5],[1,0.5]];portConstraint=eastwest;whiteSpace=wrap;html=1;" parent="rg3VmElrdccNX3w5d1Q4-5" vertex="1">
          <mxGeometry y="324" width="240" height="26" as="geometry" />
        </mxCell>
        <mxCell id="rg3VmElrdccNX3w5d1Q4-9" value="0,N" style="text;html=1;align=center;verticalAlign=middle;resizable=0;points=[];autosize=1;strokeColor=none;fillColor=none;" vertex="1" parent="1">
          <mxGeometry x="620" y="48" width="40" height="30" as="geometry" />
        </mxCell>
      </root>
    </mxGraphModel>
  </diagram>
</mxfile>
